@startuml

AbstractFactory <- MazeGame
AbstractProductA <-down-- MazeGame
AbstractProductB <-down-- MazeGame


ConcreteFactory1 o-up-> ProductA1
ConcreteFactory1 o-up-> ProductB1

ConcreteFactory2 o-up-> ProductA2
ConcreteFactory2 o-up-> ProductB2


AbstractProductB <|-- ProductB1
AbstractProductB <|-- ProductB2

class MazeGame{
}

abstract AbstractProductB{
}
class ProductB1{
}

class ProductB2{
}


AbstractProductA <|-- ProductA1
AbstractProductA <|-- ProductA2

abstract AbstractProductA{
}

class ProductA1{
}

class ProductA2{
}

AbstractFactory <|-- ConcreteFactory1
AbstractFactory <|-- ConcreteFactory2

abstract AbstractFactory{
+ createProductA()
+ createProductB()
}

class ConcreteFactory1{
+ createProductA()
+ createProductB()
}

class ConcreteFactory2{
+ createProductA()
+ createProductB()
}
@enduml